<mxfile host="65bd71144e">
    <diagram id="KoGk4SDpT1fTDiU7SgDm" name="Page-1">
        <mxGraphModel dx="2065" dy="898" grid="1" gridSize="10" guides="1" tooltips="1" connect="1" arrows="1" fold="1" page="1" pageScale="1" pageWidth="1169" pageHeight="827" math="0" shadow="0">
            <root>
                <mxCell id="0"/>
                <mxCell id="1" parent="0"/>
                <mxCell id="3" value="" style="shape=image;verticalLabelPosition=bottom;labelBackgroundColor=#ffffff;verticalAlign=top;aspect=fixed;imageAspect=0;image=data:image/svg+xml,PHN2ZyB4bWxucz0iaHR0cDovL3d3dy53My5vcmcvMjAwMC9zdmciIHhtbG5zOnhsaW5rPSJodHRwOi8vd3d3LnczLm9yZy8xOTk5L3hsaW5rIiB3aWR0aD0iMTc3LjE2M21tIiBoZWlnaHQ9IjExNS4yNTBtbSIgdmlld0JveD0iMC4wMDAgMC4wMDAgMTc3LjE2MyAxMTUuMjUwIj4KPHBvbHlnb24gcG9pbnRzPSIxNzIuMTYzLDExMC4yNTAgNS4wMDAsMTEwLjI1MCA1LjAwMCw1LjAwMCAxNzIuMTYzLDUuMDAwIiBzdHlsZT0iZmlsbDpub25lO3N0cm9rZS13aWR0aDowLjA1MDAwMG1tO3N0cm9rZTpibGFjayIvPgo8cG9seWdvbiBwb2ludHM9IjEzOC43MzEsODguNzI1IDEzOC43MzEsODkuMzI0IDEzNy45MzEsODkuMzI0IDEzNy45MzEsOTMuNDI1IDEzNy4yMDYsOTMuNDI1IDEzNy4yMDYsOTAuMTk1IDEzMC40NTUsOTAuMTk1IDEzMC40NTUsOTMuNDI1IDEyOS42MzEsOTMuNDI1IDEyOS42MzEsOTYuMjI1IDEzMC40NTUsOTYuMjI1IDEzMC40NTUsMTAyLjQ5NCAxMzIuMTgxLDEwMi40OTQgMTMyLjE4MSwxMDMuNjk1IDEzNS40ODEsMTAzLjY5NSAxMzUuNDgxLDEwMi40OTQgMTM3LjIwNiwxMDIuNDk0IDEzNy4yMDYsOTguMDI0IDEzNy45MzEsOTguMDI0IDEzNy45MzEsMTAyLjEyNSAxMzguNzMxLDEwMi4xMjUgMTM4LjczMSwxMDIuNzI1IDE1Mi43MzEsMTAyLjcyNSAxNTIuNzMxLDEwMi4xMjUgMTUzLjUzMSwxMDIuMTI1IDE1My41MzEsOTguMDI0IDE1NC4yNTYsOTguMDI0IDE1NC4yNTYsMTAyLjQ5NCAxNTUuOTgxLDEwMi40OTQgMTU1Ljk4MSwxMDMuNjk1IDE1OS4yODEsMTAzLjY5NSAxNTkuMjgxLDEwMi40OTQgMTYxLjAwNiwxMDIuNDk0IDE2MS4wMDYsOTYuMjI1IDE2MS44MzEsOTYuMjI1IDE2MS44MzEsOTMuNDI1IDE2MS4wMDYsOTMuNDI1IDE2MS4wMDYsOTAuMTk1IDE1NC4yNTYsOTAuMTk1IDE1NC4yNTYsOTMuNDI1IDE1My41MzEsOTMuNDI1IDE1My41MzEsODkuMzI0IDE1Mi43MzEsODkuMzI0IDE1Mi43MzEsODguNzI1IiBzdHlsZT0iZmlsbDpub25lO3N0cm9rZS13aWR0aDowLjA1MDAwMG1tO3N0cm9rZTpibGFjayIvPgo8cG9seWdvbiBwb2ludHM9IjEwNS4zOTMsODguNzI1IDEwNS4zOTMsODkuMzI0IDEwNC41OTMsODkuMzI0IDEwNC41OTMsMTAyLjEyNSAxMDUuMzkzLDEwMi4xMjUgMTA1LjM5MywxMDIuNzI1IDExOS4zOTMsMTAyLjcyNSAxMTkuMzkzLDEwMi4xMjUgMTIwLjE5MywxMDIuMTI1IDEyMC4xOTMsODkuMzI0IDExOS4zOTMsODkuMzI0IDExOS4zOTMsODguNzI1IiBzdHlsZT0iZmlsbDpub25lO3N0cm9rZS13aWR0aDowLjA1MDAwMG1tO3N0cm9rZTpibGFjayIvPgo8cG9seWdvbiBwb2ludHM9IjgxLjU4MSw4OC43MjUgODEuNTgxLDg5LjMyNCA4MC43ODEsODkuMzI0IDgwLjc4MSwxMDIuMTI1IDgxLjU4MSwxMDIuMTI1IDgxLjU4MSwxMDIuNzI1IDk1LjU4MSwxMDIuNzI1IDk1LjU4MSwxMDIuMTI1IDk2LjM4MSwxMDIuMTI1IDk2LjM4MSw4OS4zMjQgOTUuNTgxLDg5LjMyNCA5NS41ODEsODguNzI1IiBzdHlsZT0iZmlsbDpub25lO3N0cm9rZS13aWR0aDowLjA1MDAwMG1tO3N0cm9rZTpibGFjayIvPgo8cG9seWdvbiBwb2ludHM9IjU3Ljc2OCw4OC43MjUgNTcuNzY4LDg5LjMyNCA1Ni45NjgsODkuMzI0IDU2Ljk2OCwxMDIuMTI1IDU3Ljc2OCwxMDIuMTI1IDU3Ljc2OCwxMDIuNzI1IDcxLjc2OCwxMDIuNzI1IDcxLjc2OCwxMDIuMTI1IDcyLjU2OCwxMDIuMTI1IDcyLjU2OCw4OS4zMjQgNzEuNzY4LDg5LjMyNCA3MS43NjgsODguNzI1IiBzdHlsZT0iZmlsbDpub25lO3N0cm9rZS13aWR0aDowLjA1MDAwMG1tO3N0cm9rZTpibGFjayIvPgo8cG9seWdvbiBwb2ludHM9IjMzLjk1Niw4OC43MjUgMzMuOTU2LDg5LjMyNCAzMy4xNTYsODkuMzI0IDMzLjE1NiwxMDIuMTI1IDMzLjk1NiwxMDIuMTI1IDMzLjk1NiwxMDIuNzI1IDQ3Ljk1NiwxMDIuNzI1IDQ3Ljk1NiwxMDIuMTI1IDQ4Ljc1NiwxMDIuMTI1IDQ4Ljc1Niw4OS4zMjQgNDcuOTU2LDg5LjMyNCA0Ny45NTYsODguNzI1IiBzdHlsZT0iZmlsbDpub25lO3N0cm9rZS13aWR0aDowLjA1MDAwMG1tO3N0cm9rZTpibGFjayIvPgo8cG9seWdvbiBwb2ludHM9IjEyLjUyNCw4OC43MjUgMTIuNTI0LDg5LjMyNCAxMS43MjQsODkuMzI0IDExLjcyNCwxMDIuMTI1IDEyLjUyNCwxMDIuMTI1IDEyLjUyNCwxMDIuNzI1IDI2LjUyNSwxMDIuNzI1IDI2LjUyNSwxMDIuMTI1IDI3LjMyNSwxMDIuMTI1IDI3LjMyNSw4OS4zMjQgMjYuNTI1LDg5LjMyNCAyNi41MjUsODguNzI1IiBzdHlsZT0iZmlsbDpub25lO3N0cm9rZS13aWR0aDowLjA1MDAwMG1tO3N0cm9rZTpibGFjayIvPgo8cG9seWdvbiBwb2ludHM9IjQzLjQ4MSw2OS42NzUgNDMuNDgxLDcwLjI3NCA0Mi42ODEsNzAuMjc0IDQyLjY4MSw3NC4zNzUgNDEuOTU2LDc0LjM3NSA0MS45NTYsNzEuMTQ1IDM1LjIwNiw3MS4xNDUgMzUuMjA2LDc0LjM3NSAzNC4zODEsNzQuMzc1IDM0LjM4MSw3Ny4xNzUgMzUuMjA2LDc3LjE3NSAzNS4yMDYsODMuNDQ1IDM2LjkzMSw4My40NDUgMzYuOTMxLDg0LjY0NSA0MC4yMzEsODQuNjQ1IDQwLjIzMSw4My40NDUgNDEuOTU2LDgzLjQ0NSA0MS45NTYsNzguOTc1IDQyLjY4MSw3OC45NzUgNDIuNjgxLDgzLjA3NSA0My40ODEsODMuMDc1IDQzLjQ4MSw4My42NzUgNTcuNDgxLDgzLjY3NSA1Ny40ODEsODMuMDc1IDU4LjI4MSw4My4wNzUgNTguMjgxLDc4Ljk3NSA1OS4wMDYsNzguOTc1IDU5LjAwNiw4My40NDUgNjAuNzMxLDgzLjQ0NSA2MC43MzEsODQuNjQ1IDY0LjAzMSw4NC42NDUgNjQuMDMxLDgzLjQ0NSA2NS43NTYsODMuNDQ1IDY1Ljc1Niw3Ny4xNzUgNjYuNTgxLDc3LjE3NSA2Ni41ODEsNzQuMzc1IDY1Ljc1Niw3NC4zNzUgNjUuNzU2LDcxLjE0NSA1OS4wMDYsNzEuMTQ1IDU5LjAwNiw3NC4zNzUgNTguMjgxLDc0LjM3NSA1OC4yODEsNzAuMjc0IDU3LjQ4MSw3MC4yNzQgNTcuNDgxLDY5LjY3NSIgc3R5bGU9ImZpbGw6bm9uZTtzdHJva2Utd2lkdGg6MC4wNTAwMDBtbTtzdHJva2U6YmxhY2siLz4KPHBvbHlnb24gcG9pbnRzPSIxNTAuNjM3LDY5LjY3NSAxNTAuNjM3LDcwLjI3NCAxNDkuODM3LDcwLjI3NCAxNDkuODM3LDgzLjA3NSAxNTAuNjM3LDgzLjA3NSAxNTAuNjM3LDgzLjY3NSAxNjQuNjM3LDgzLjY3NSAxNjQuNjM3LDgzLjA3NSAxNjUuNDM3LDgzLjA3NSAxNjUuNDM3LDcwLjI3NCAxNjQuNjM3LDcwLjI3NCAxNjQuNjM3LDY5LjY3NSIgc3R5bGU9ImZpbGw6bm9uZTtzdHJva2Utd2lkdGg6MC4wNTAwMDBtbTtzdHJva2U6YmxhY2siLz4KPHBvbHlnb24gcG9pbnRzPSIxMzEuNTg3LDY5LjY3NSAxMzEuNTg3LDcwLjI3NCAxMzAuNzg3LDcwLjI3NCAxMzAuNzg3LDgzLjA3NSAxMzEuNTg3LDgzLjA3NSAxMzEuNTg3LDgzLjY3NSAxNDUuNTg3LDgzLjY3NSAxNDUuNTg3LDgzLjA3NSAxNDYuMzg3LDgzLjA3NSAxNDYuMzg3LDcwLjI3NCAxNDUuNTg3LDcwLjI3NCAxNDUuNTg3LDY5LjY3NSIgc3R5bGU9ImZpbGw6bm9uZTtzdHJva2Utd2lkdGg6MC4wNTAwMDBtbTtzdHJva2U6YmxhY2siLz4KPHBvbHlnb24gcG9pbnRzPSIxMTIuNTM3LDY5LjY3NSAxMTIuNTM3LDcwLjI3NCAxMTEuNzM3LDcwLjI3NCAxMTEuNzM3LDgzLjA3NSAxMTIuNTM3LDgzLjA3NSAxMTIuNTM3LDgzLjY3NSAxMjYuNTM3LDgzLjY3NSAxMjYuNTM3LDgzLjA3NSAxMjcuMzM3LDgzLjA3NSAxMjcuMzM3LDcwLjI3NCAxMjYuNTM3LDcwLjI3NCAxMjYuNTM3LDY5LjY3NSIgc3R5bGU9ImZpbGw6bm9uZTtzdHJva2Utd2lkdGg6MC4wNTAwMDBtbTtzdHJva2U6YmxhY2siLz4KPHBvbHlnb24gcG9pbnRzPSI5My40ODcsNjkuNjc1IDkzLjQ4Nyw3MC4yNzQgOTIuNjg3LDcwLjI3NCA5Mi42ODcsODMuMDc1IDkzLjQ4Nyw4My4wNzUgOTMuNDg3LDgzLjY3NSAxMDcuNDg3LDgzLjY3NSAxMDcuNDg3LDgzLjA3NSAxMDguMjg3LDgzLjA3NSAxMDguMjg3LDcwLjI3NCAxMDcuNDg3LDcwLjI3NCAxMDcuNDg3LDY5LjY3NSIgc3R5bGU9ImZpbGw6bm9uZTtzdHJva2Utd2lkdGg6MC4wNTAwMDBtbTtzdHJva2U6YmxhY2siLz4KPHBvbHlnb24gcG9pbnRzPSI3NC40MzcsNjkuNjc1IDc0LjQzNyw3MC4yNzQgNzMuNjM3LDcwLjI3NCA3My42MzcsODMuMDc1IDc0LjQzNyw4My4wNzUgNzQuNDM3LDgzLjY3NSA4OC40MzcsODMuNjc1IDg4LjQzNyw4My4wNzUgODkuMjM3LDgzLjA3NSA4OS4yMzcsNzAuMjc0IDg4LjQzNyw3MC4yNzQgODguNDM3LDY5LjY3NSIgc3R5bGU9ImZpbGw6bm9uZTtzdHJva2Utd2lkdGg6MC4wNTAwMDBtbTtzdHJva2U6YmxhY2siLz4KPHBvbHlnb24gcG9pbnRzPSIxMi41MjQsNjkuNjc1IDEyLjUyNCw3MC4yNzQgMTEuNzI0LDcwLjI3NCAxMS43MjQsODMuMDc1IDEyLjUyNCw4My4wNzUgMTIuNTI0LDgzLjY3NSAyNi41MjUsODMuNjc1IDI2LjUyNSw4My4wNzUgMjcuMzI1LDgzLjA3NSAyNy4zMjUsNzAuMjc0IDI2LjUyNSw3MC4yNzQgMjYuNTI1LDY5LjY3NSIgc3R5bGU9ImZpbGw6bm9uZTtzdHJva2Utd2lkdGg6MC4wNTAwMDBtbTtzdHJva2U6YmxhY2siLz4KPHBvbHlnb24gcG9pbnRzPSIxNDEuMTEyLDUwLjYyNSAxNDEuMTEyLDUxLjIyNSAxNDAuMzEyLDUxLjIyNSAxNDAuMzEyLDY0LjAyNSAxNDEuMTEyLDY0LjAyNSAxNDEuMTEyLDY0LjYyNSAxNTUuMTEyLDY0LjYyNSAxNTUuMTEyLDY0LjAyNSAxNTUuOTEyLDY0LjAyNSAxNTUuOTEyLDUxLjIyNSAxNTUuMTEyLDUxLjIyNSAxNTUuMTEyLDUwLjYyNSIgc3R5bGU9ImZpbGw6bm9uZTtzdHJva2Utd2lkdGg6MC4wNTAwMDBtbTtzdHJva2U6YmxhY2siLz4KPHBvbHlnb24gcG9pbnRzPSIxMjIuMDYyLDUwLjYyNSAxMjIuMDYyLDUxLjIyNSAxMjEuMjYyLDUxLjIyNSAxMjEuMjYyLDY0LjAyNSAxMjIuMDYyLDY0LjAyNSAxMjIuMDYyLDY0LjYyNSAxMzYuMDYyLDY0LjYyNSAxMzYuMDYyLDY0LjAyNSAxMzYuODYyLDY0LjAyNSAxMzYuODYyLDUxLjIyNSAxMzYuMDYyLDUxLjIyNSAxMzYuMDYyLDUwLjYyNSIgc3R5bGU9ImZpbGw6bm9uZTtzdHJva2Utd2lkdGg6MC4wNTAwMDBtbTtzdHJva2U6YmxhY2siLz4KPHBvbHlnb24gcG9pbnRzPSIxMDMuMDEyLDUwLjYyNSAxMDMuMDEyLDUxLjIyNSAxMDIuMjEyLDUxLjIyNSAxMDIuMjEyLDY0LjAyNSAxMDMuMDEyLDY0LjAyNSAxMDMuMDEyLDY0LjYyNSAxMTcuMDEyLDY0LjYyNSAxMTcuMDEyLDY0LjAyNSAxMTcuODEyLDY0LjAyNSAxMTcuODEyLDUxLjIyNSAxMTcuMDEyLDUxLjIyNSAxMTcuMDEyLDUwLjYyNSIgc3R5bGU9ImZpbGw6bm9uZTtzdHJva2Utd2lkdGg6MC4wNTAwMDBtbTtzdHJva2U6YmxhY2siLz4KPHBvbHlnb24gcG9pbnRzPSI4My45NjIsNTAuNjI1IDgzLjk2Miw1MS4yMjUgODMuMTYyLDUxLjIyNSA4My4xNjIsNjQuMDI1IDgzLjk2Miw2NC4wMjUgODMuOTYyLDY0LjYyNSA5Ny45NjIsNjQuNjI1IDk3Ljk2Miw2NC4wMjUgOTguNzYyLDY0LjAyNSA5OC43NjIsNTEuMjI1IDk3Ljk2Miw1MS4yMjUgOTcuOTYyLDUwLjYyNSIgc3R5bGU9ImZpbGw6bm9uZTtzdHJva2Utd2lkdGg6MC4wNTAwMDBtbTtzdHJva2U6YmxhY2siLz4KPHBvbHlnb24gcG9pbnRzPSI2NC45MTIsNTAuNjI1IDY0LjkxMiw1MS4yMjUgNjQuMTExLDUxLjIyNSA2NC4xMTEsNjQuMDI1IDY0LjkxMiw2NC4wMjUgNjQuOTEyLDY0LjYyNSA3OC45MTIsNjQuNjI1IDc4LjkxMiw2NC4wMjUgNzkuNzEyLDY0LjAyNSA3OS43MTIsNTEuMjI1IDc4LjkxMiw1MS4yMjUgNzguOTEyLDUwLjYyNSIgc3R5bGU9ImZpbGw6bm9uZTtzdHJva2Utd2lkdGg6MC4wNTAwMDBtbTtzdHJva2U6YmxhY2siLz4KPHBvbHlnb24gcG9pbnRzPSIzOC43MTgsNTAuNjI1IDM4LjcxOCw1MS4yMjUgMzcuOTE4LDUxLjIyNSAzNy45MTgsNjQuMDI1IDM4LjcxOCw2NC4wMjUgMzguNzE4LDY0LjYyNSA1Mi43MTgsNjQuNjI1IDUyLjcxOCw2NC4wMjUgNTMuNTE4LDY0LjAyNSA1My41MTgsNTEuMjI1IDUyLjcxOCw1MS4yMjUgNTIuNzE4LDUwLjYyNSIgc3R5bGU9ImZpbGw6bm9uZTtzdHJva2Utd2lkdGg6MC4wNTAwMDBtbTtzdHJva2U6YmxhY2siLz4KPHBvbHlnb24gcG9pbnRzPSIxMi41MjQsNTAuNjI1IDEyLjUyNCw1MS4yMjUgMTEuNzI0LDUxLjIyNSAxMS43MjQsNjQuMDI1IDEyLjUyNCw2NC4wMjUgMTIuNTI0LDY0LjYyNSAyNi41MjUsNjQuNjI1IDI2LjUyNSw2NC4wMjUgMjcuMzI1LDY0LjAyNSAyNy4zMjUsNTEuMjI1IDI2LjUyNSw1MS4yMjUgMjYuNTI1LDUwLjYyNSIgc3R5bGU9ImZpbGw6bm9uZTtzdHJva2Utd2lkdGg6MC4wNTAwMDBtbTtzdHJva2U6YmxhY2siLz4KPHBvbHlnb24gcG9pbnRzPSIxMzYuMzUwLDMxLjU3NSAxMzYuMzUwLDMyLjE3NCAxMzUuNTQ5LDMyLjE3NCAxMzUuNTQ5LDQ0Ljk3NSAxMzYuMzUwLDQ0Ljk3NSAxMzYuMzUwLDQ1LjU3NSAxNTAuMzUwLDQ1LjU3NSAxNTAuMzUwLDQ0Ljk3NSAxNTEuMTUwLDQ0Ljk3NSAxNTEuMTUwLDMyLjE3NCAxNTAuMzUwLDMyLjE3NCAxNTAuMzUwLDMxLjU3NSIgc3R5bGU9ImZpbGw6bm9uZTtzdHJva2Utd2lkdGg6MC4wNTAwMDBtbTtzdHJva2U6YmxhY2siLz4KPHBvbHlnb24gcG9pbnRzPSIxMTcuMzAwLDMxLjU3NSAxMTcuMzAwLDMyLjE3NCAxMTYuNTAwLDMyLjE3NCAxMTYuNTAwLDQ0Ljk3NSAxMTcuMzAwLDQ0Ljk3NSAxMTcuMzAwLDQ1LjU3NSAxMzEuMzAwLDQ1LjU3NSAxMzEuMzAwLDQ0Ljk3NSAxMzIuMTAwLDQ0Ljk3NSAxMzIuMTAwLDMyLjE3NCAxMzEuMzAwLDMyLjE3NCAxMzEuMzAwLDMxLjU3NSIgc3R5bGU9ImZpbGw6bm9uZTtzdHJva2Utd2lkdGg6MC4wNTAwMDBtbTtzdHJva2U6YmxhY2siLz4KPHBvbHlnb24gcG9pbnRzPSI5OC4yNTAsMzEuNTc1IDk4LjI1MCwzMi4xNzQgOTcuNDUwLDMyLjE3NCA5Ny40NTAsNDQuOTc1IDk4LjI1MCw0NC45NzUgOTguMjUwLDQ1LjU3NSAxMTIuMjUwLDQ1LjU3NSAxMTIuMjUwLDQ0Ljk3NSAxMTMuMDUwLDQ0Ljk3NSAxMTMuMDUwLDMyLjE3NCAxMTIuMjUwLDMyLjE3NCAxMTIuMjUwLDMxLjU3NSIgc3R5bGU9ImZpbGw6bm9uZTtzdHJva2Utd2lkdGg6MC4wNTAwMDBtbTtzdHJva2U6YmxhY2siLz4KPHBvbHlnb24gcG9pbnRzPSI3OS4yMDAsMzEuNTc1IDc5LjIwMCwzMi4xNzQgNzguNDAwLDMyLjE3NCA3OC40MDAsNDQuOTc1IDc5LjIwMCw0NC45NzUgNzkuMjAwLDQ1LjU3NSA5My4yMDAsNDUuNTc1IDkzLjIwMCw0NC45NzUgOTQuMDAwLDQ0Ljk3NSA5NC4wMDAsMzIuMTc0IDkzLjIwMCwzMi4xNzQgOTMuMjAwLDMxLjU3NSIgc3R5bGU9ImZpbGw6bm9uZTtzdHJva2Utd2lkdGg6MC4wNTAwMDBtbTtzdHJva2U6YmxhY2siLz4KPHBvbHlnb24gcG9pbnRzPSI2MC4xNTAsMzEuNTc1IDYwLjE1MCwzMi4xNzQgNTkuMzUwLDMyLjE3NCA1OS4zNTAsNDQuOTc1IDYwLjE1MCw0NC45NzUgNjAuMTUwLDQ1LjU3NSA3NC4xNTAsNDUuNTc1IDc0LjE1MCw0NC45NzUgNzQuOTUwLDQ0Ljk3NSA3NC45NTAsMzIuMTc0IDc0LjE1MCwzMi4xNzQgNzQuMTUwLDMxLjU3NSIgc3R5bGU9ImZpbGw6bm9uZTtzdHJva2Utd2lkdGg6MC4wNTAwMDBtbTtzdHJva2U6YmxhY2siLz4KPHBvbHlnb24gcG9pbnRzPSIzNi4zMzcsMzEuNTc1IDM2LjMzNywzMi4xNzQgMzUuNTM3LDMyLjE3NCAzNS41MzcsNDQuOTc1IDM2LjMzNyw0NC45NzUgMzYuMzM3LDQ1LjU3NSA1MC4zMzcsNDUuNTc1IDUwLjMzNyw0NC45NzUgNTEuMTM3LDQ0Ljk3NSA1MS4xMzcsMzIuMTc0IDUwLjMzNywzMi4xNzQgNTAuMzM3LDMxLjU3NSIgc3R5bGU9ImZpbGw6bm9uZTtzdHJva2Utd2lkdGg6MC4wNTAwMDBtbTtzdHJva2U6YmxhY2siLz4KPHBvbHlnb24gcG9pbnRzPSIxMi41MjQsMzEuNTc1IDEyLjUyNCwzMi4xNzQgMTEuNzI0LDMyLjE3NCAxMS43MjQsNDQuOTc1IDEyLjUyNCw0NC45NzUgMTIuNTI0LDQ1LjU3NSAyNi41MjUsNDUuNTc1IDI2LjUyNSw0NC45NzUgMjcuMzI1LDQ0Ljk3NSAyNy4zMjUsMzIuMTc0IDI2LjUyNSwzMi4xNzQgMjYuNTI1LDMxLjU3NSIgc3R5bGU9ImZpbGw6bm9uZTtzdHJva2Utd2lkdGg6MC4wNTAwMDBtbTtzdHJva2U6YmxhY2siLz4KPHBvbHlnb24gcG9pbnRzPSIxMjYuODI0LDEyLjUyNCAxMjYuODI0LDEzLjEyNCAxMjYuMDI0LDEzLjEyNCAxMjYuMDI0LDI1LjkyNCAxMjYuODI0LDI1LjkyNCAxMjYuODI0LDI2LjUyNSAxNDAuODI1LDI2LjUyNSAxNDAuODI1LDI1LjkyNCAxNDEuNjI1LDI1LjkyNCAxNDEuNjI1LDEzLjEyNCAxNDAuODI1LDEzLjEyNCAxNDAuODI1LDEyLjUyNCIgc3R5bGU9ImZpbGw6bm9uZTtzdHJva2Utd2lkdGg6MC4wNTAwMDBtbTtzdHJva2U6YmxhY2siLz4KPHBvbHlnb24gcG9pbnRzPSIxMDcuNzc0LDEyLjUyNCAxMDcuNzc0LDEzLjEyNCAxMDYuOTc1LDEzLjEyNCAxMDYuOTc1LDI1LjkyNCAxMDcuNzc0LDI1LjkyNCAxMDcuNzc0LDI2LjUyNSAxMjEuNzc0LDI2LjUyNSAxMjEuNzc0LDI1LjkyNCAxMjIuNTc0LDI1LjkyNCAxMjIuNTc0LDEzLjEyNCAxMjEuNzc0LDEzLjEyNCAxMjEuNzc0LDEyLjUyNCIgc3R5bGU9ImZpbGw6bm9uZTtzdHJva2Utd2lkdGg6MC4wNTAwMDBtbTtzdHJva2U6YmxhY2siLz4KPHBvbHlnb24gcG9pbnRzPSI4OC43MjUsMTIuNTI0IDg4LjcyNSwxMy4xMjQgODcuOTI1LDEzLjEyNCA4Ny45MjUsMjUuOTI0IDg4LjcyNSwyNS45MjQgODguNzI1LDI2LjUyNSAxMDIuNzI1LDI2LjUyNSAxMDIuNzI1LDI1LjkyNCAxMDMuNTI0LDI1LjkyNCAxMDMuNTI0LDEzLjEyNCAxMDIuNzI1LDEzLjEyNCAxMDIuNzI1LDEyLjUyNCIgc3R5bGU9ImZpbGw6bm9uZTtzdHJva2Utd2lkdGg6MC4wNTAwMDBtbTtzdHJva2U6YmxhY2siLz4KPHBvbHlnb24gcG9pbnRzPSI2OS42NzUsMTIuNTI0IDY5LjY3NSwxMy4xMjQgNjguODc1LDEzLjEyNCA2OC44NzUsMjUuOTI0IDY5LjY3NSwyNS45MjQgNjkuNjc1LDI2LjUyNSA4My42NzUsMjYuNTI1IDgzLjY3NSwyNS45MjQgODQuNDc1LDI1LjkyNCA4NC40NzUsMTMuMTI0IDgzLjY3NSwxMy4xMjQgODMuNjc1LDEyLjUyNCIgc3R5bGU9ImZpbGw6bm9uZTtzdHJva2Utd2lkdGg6MC4wNTAwMDBtbTtzdHJva2U6YmxhY2siLz4KPHBvbHlnb24gcG9pbnRzPSI1MC42MjUsMTIuNTI0IDUwLjYyNSwxMy4xMjQgNDkuODI1LDEzLjEyNCA0OS44MjUsMjUuOTI0IDUwLjYyNSwyNS45MjQgNTAuNjI1LDI2LjUyNSA2NC42MjUsMjYuNTI1IDY0LjYyNSwyNS45MjQgNjUuNDI1LDI1LjkyNCA2NS40MjUsMTMuMTI0IDY0LjYyNSwxMy4xMjQgNjQuNjI1LDEyLjUyNCIgc3R5bGU9ImZpbGw6bm9uZTtzdHJva2Utd2lkdGg6MC4wNTAwMDBtbTtzdHJva2U6YmxhY2siLz4KPHBvbHlnb24gcG9pbnRzPSIzMS41NzUsMTIuNTI0IDMxLjU3NSwxMy4xMjQgMzAuNzc1LDEzLjEyNCAzMC43NzUsMjUuOTI0IDMxLjU3NSwyNS45MjQgMzEuNTc1LDI2LjUyNSA0NS41NzUsMjYuNTI1IDQ1LjU3NSwyNS45MjQgNDYuMzc1LDI1LjkyNCA0Ni4zNzUsMTMuMTI0IDQ1LjU3NSwxMy4xMjQgNDUuNTc1LDEyLjUyNCIgc3R5bGU9ImZpbGw6bm9uZTtzdHJva2Utd2lkdGg6MC4wNTAwMDBtbTtzdHJva2U6YmxhY2siLz4KPHBvbHlnb24gcG9pbnRzPSIxMi41MjQsMTIuNTI0IDEyLjUyNCwxMy4xMjQgMTEuNzI0LDEzLjEyNCAxMS43MjQsMjUuOTI0IDEyLjUyNCwyNS45MjQgMTIuNTI0LDI2LjUyNSAyNi41MjUsMjYuNTI1IDI2LjUyNSwyNS45MjQgMjcuMzI1LDI1LjkyNCAyNy4zMjUsMTMuMTI0IDI2LjUyNSwxMy4xMjQgMjYuNTI1LDEyLjUyNCIgc3R5bGU9ImZpbGw6bm9uZTtzdHJva2Utd2lkdGg6MC4wNTAwMDBtbTtzdHJva2U6YmxhY2siLz4KPC9zdmc+;" parent="1" vertex="1">
                    <mxGeometry x="40" width="611.03" height="397" as="geometry"/>
                </mxCell>
                <mxCell id="8" value="" style="ellipse;whiteSpace=wrap;html=1;aspect=fixed;" vertex="1" parent="1">
                    <mxGeometry x="70" y="360" width="10" height="10" as="geometry"/>
                </mxCell>
                <mxCell id="9" value="" style="ellipse;whiteSpace=wrap;html=1;aspect=fixed;" vertex="1" parent="1">
                    <mxGeometry x="120" y="360" width="10" height="10" as="geometry"/>
                </mxCell>
                <mxCell id="10" value="" style="ellipse;whiteSpace=wrap;html=1;aspect=fixed;" vertex="1" parent="1">
                    <mxGeometry x="150" y="360" width="10" height="10" as="geometry"/>
                </mxCell>
                <mxCell id="11" value="" style="ellipse;whiteSpace=wrap;html=1;aspect=fixed;" vertex="1" parent="1">
                    <mxGeometry x="590" y="30" width="10" height="10" as="geometry"/>
                </mxCell>
                <mxCell id="12" value="" style="ellipse;whiteSpace=wrap;html=1;aspect=fixed;" vertex="1" parent="1">
                    <mxGeometry x="600" y="360" width="10" height="10" as="geometry"/>
                </mxCell>
                <mxCell id="15" value="" style="ellipse;whiteSpace=wrap;html=1;aspect=fixed;" vertex="1" parent="1">
                    <mxGeometry x="150" y="30" width="10" height="10" as="geometry"/>
                </mxCell>
                <mxCell id="16" value="" style="ellipse;whiteSpace=wrap;html=1;aspect=fixed;" vertex="1" parent="1">
                    <mxGeometry x="120" y="30" width="10" height="10" as="geometry"/>
                </mxCell>
                <mxCell id="17" value="" style="ellipse;whiteSpace=wrap;html=1;aspect=fixed;" vertex="1" parent="1">
                    <mxGeometry x="70" y="30" width="10" height="10" as="geometry"/>
                </mxCell>
                <mxCell id="18" value="" style="ellipse;whiteSpace=wrap;html=1;aspect=fixed;" vertex="1" parent="1">
                    <mxGeometry x="310" y="360" width="10" height="10" as="geometry"/>
                </mxCell>
                <mxCell id="19" value="" style="ellipse;whiteSpace=wrap;html=1;aspect=fixed;" vertex="1" parent="1">
                    <mxGeometry x="330" y="360" width="10" height="10" as="geometry"/>
                </mxCell>
                <mxCell id="20" value="" style="ellipse;whiteSpace=wrap;html=1;aspect=fixed;" vertex="1" parent="1">
                    <mxGeometry x="330" y="30" width="10" height="10" as="geometry"/>
                </mxCell>
                <mxCell id="21" value="" style="ellipse;whiteSpace=wrap;html=1;aspect=fixed;" vertex="1" parent="1">
                    <mxGeometry x="310" y="30" width="10" height="10" as="geometry"/>
                </mxCell>
                <mxCell id="24" value="" style="endArrow=none;html=1;" edge="1" parent="1">
                    <mxGeometry width="50" height="50" relative="1" as="geometry">
                        <mxPoint x="140" y="380" as="sourcePoint"/>
                        <mxPoint x="140" y="17" as="targetPoint"/>
                    </mxGeometry>
                </mxCell>
                <mxCell id="27" value="" style="rounded=0;whiteSpace=wrap;html=1;" vertex="1" parent="1">
                    <mxGeometry x="60" y="410" width="580" height="280" as="geometry"/>
                </mxCell>
            </root>
        </mxGraphModel>
    </diagram>
</mxfile>